<svg xmlns="http://www.w3.org/2000/svg" viewBox="0 0 200 200">
  <rect width="200" height="200" fill="#080808"/>
  <circle cx="100" cy="100" r="78" fill="none" stroke="#c8f060" stroke-width="0.4" opacity="0.1"/>
  <line x1="48" y1="45" x2="152" y2="45" stroke="#c8f060" stroke-width="0.8" opacity="0.18"/>
  <line x1="48" y1="45" x2="28" y2="116" stroke="#c8f060" stroke-width="0.6" opacity="0.14"/>
  <line x1="152" y1="45" x2="172" y2="116" stroke="#c8f060" stroke-width="0.6" opacity="0.14"/>
  <path d="M 26 100 A 74 74 0 0 1 100 26" fill="none" stroke="#c8f060" stroke-width="2.4" stroke-linecap="round"/>
  <path d="M 100 22 A 78 48 0 0 1 167 117" fill="none" stroke="#6366f1" stroke-width="1.4" stroke-linecap="round" opacity="0.65"/>
  <circle cx="48" cy="45" r="7" fill="#c8f060"/>
  <circle cx="152" cy="45" r="7" fill="#c8f060"/>
  <circle cx="28" cy="116" r="4" fill="#c8f060" opacity="0.6"/>
  <circle cx="172" cy="116" r="4" fill="#6366f1" opacity="0.85"/>
  <path d="M 80 66 L 80 134" stroke="#f5f5f0" stroke-width="8.5" stroke-linecap="round" fill="none"/>
  <path d="M 80 66 L 122 66" stroke="#f5f5f0" stroke-width="8.5" stroke-linecap="round" fill="none"/>
  <path d="M 80 100 L 113 100" stroke="#f5f5f0" stroke-width="8.5" stroke-linecap="round" fill="none"/>
  <path d="M 80 134 L 122 134" stroke="#f5f5f0" stroke-width="8.5" stroke-linecap="round" fill="none"/>
</svg>
